<?xml version="1.0" encoding="UTF-8" standalone="no"?>
<!DOCTYPE svg PUBLIC "-//W3C//DTD SVG 1.1//EN"
 "http://www.w3.org/Graphics/SVG/1.1/DTD/svg11.dtd">
<!-- Generated by graphviz version 14.0.4 (0)
 -->
<!-- Title: modules Pages: 1 -->
<svg width="885pt" height="303pt"
 viewBox="0.00 0.00 885.00 303.00" xmlns="http://www.w3.org/2000/svg" xmlns:xlink="http://www.w3.org/1999/xlink">
<g id="graph0" class="graph" transform="scale(1 1) rotate(0) translate(4 299.35)">
<title>modules</title>
<g id="clust1" class="cluster">
<title>cluster_navigation</title>
<polygon fill="#aa96da" fill-opacity="0.062745" stroke="#aa96da" stroke-dasharray="5,2" points="250,-49.45 250,-128.95 869,-128.95 869,-49.45 250,-49.45"/>
<text xml:space="preserve" text-anchor="middle" x="826.5" y="-111.65" font-family="fixed" font-size="14.00" fill="#b5e4f4">navigation</text>
</g>
<g id="clust2" class="cluster">
<title>cluster_perception</title>
<polygon fill="#9575cd" fill-opacity="0.062745" stroke="#9575cd" stroke-dasharray="5,2" points="8,-49.45 8,-128.95 242,-128.95 242,-49.45 8,-49.45"/>
<text xml:space="preserve" text-anchor="middle" x="198.38" y="-111.65" font-family="fixed" font-size="14.00" fill="#b5e4f4">perception</text>
</g>
<g id="clust3" class="cluster">
<title>cluster_robot</title>
<polygon fill="#64b5f6" fill-opacity="0.062745" stroke="#64b5f6" stroke-dasharray="5,2" points="302,-186.4 302,-265.9 494,-265.9 494,-186.4 302,-186.4"/>
<text xml:space="preserve" text-anchor="middle" x="468.38" y="-248.6" font-family="fixed" font-size="14.00" fill="#b5e4f4">robot</text>
</g>
<!-- AstarPlanner -->
<g id="node1" class="node">
<title>AstarPlanner</title>
<polygon fill="#0b0f0f" stroke="#5c9ff0" points="693.33,-93.45 604.67,-93.45 604.67,-57.45 693.33,-57.45 693.33,-93.45"/>
<text xml:space="preserve" text-anchor="middle" x="649" y="-72.67" font-family="fixed" font-size="12.00" fill="#b5e4f4">AstarPlanner</text>
</g>
<!-- chan_path_Path -->
<g id="node17" class="node">
<title>chan_path_Path</title>
<polygon fill="#f06292" fill-opacity="0.207843" stroke="#f06292" points="796.7,-21.45 737.3,-21.45 737.3,0 796.7,0 796.7,-21.45"/>
<text xml:space="preserve" text-anchor="middle" x="767" y="-8.35" font-family="fixed" font-size="10.00" fill="#b5e4f4">path:Path</text>
</g>
<!-- AstarPlanner&#45;&gt;chan_path_Path -->
<g id="edge20" class="edge">
<title>AstarPlanner&#45;&gt;chan_path_Path</title>
<path fill="none" stroke="#f06292" d="M681.87,-56.98C703.15,-45.67 730.1,-31.34 747.92,-21.87"/>
</g>
<!-- BehaviorTreeNavigator -->
<g id="node2" class="node">
<title>BehaviorTreeNavigator</title>
<polygon fill="#0b0f0f" stroke="#5c9ff0" points="586.45,-93.45 441.55,-93.45 441.55,-57.45 586.45,-57.45 586.45,-93.45"/>
<text xml:space="preserve" text-anchor="middle" x="514" y="-72.67" font-family="fixed" font-size="12.00" fill="#b5e4f4">BehaviorTreeNavigator</text>
</g>
<!-- chan_goal_reached_Bool -->
<g id="node13" class="node">
<title>chan_goal_reached_Bool</title>
<polygon fill="#dce775" fill-opacity="0.207843" stroke="#dce775" points="403.95,-21.45 304.05,-21.45 304.05,0 403.95,0 403.95,-21.45"/>
<text xml:space="preserve" text-anchor="middle" x="354" y="-8.35" font-family="fixed" font-size="10.00" fill="#b5e4f4">goal_reached:Bool</text>
</g>
<!-- BehaviorTreeNavigator&#45;&gt;chan_goal_reached_Bool -->
<g id="edge12" class="edge">
<title>BehaviorTreeNavigator&#45;&gt;chan_goal_reached_Bool</title>
<path fill="none" stroke="#dce775" d="M469.43,-56.98C440.58,-45.67 404.03,-31.34 379.87,-21.87"/>
</g>
<!-- chan_target_PoseStamped -->
<g id="node18" class="node">
<title>chan_target_PoseStamped</title>
<polygon fill="#ff6b6b" fill-opacity="0.207843" stroke="#ff6b6b" points="699.83,-21.45 590.17,-21.45 590.17,0 699.83,0 699.83,-21.45"/>
<text xml:space="preserve" text-anchor="middle" x="645" y="-8.35" font-family="fixed" font-size="10.00" fill="#b5e4f4">target:PoseStamped</text>
</g>
<!-- BehaviorTreeNavigator&#45;&gt;chan_target_PoseStamped -->
<g id="edge22" class="edge">
<title>BehaviorTreeNavigator&#45;&gt;chan_target_PoseStamped</title>
<path fill="none" stroke="#ff6b6b" d="M550.49,-56.98C574.11,-45.67 604.04,-31.34 623.82,-21.87"/>
</g>
<!-- HolonomicLocalPlanner -->
<g id="node3" class="node">
<title>HolonomicLocalPlanner</title>
<polygon fill="#0b0f0f" stroke="#5c9ff0" points="861.08,-93.45 710.92,-93.45 710.92,-57.45 861.08,-57.45 861.08,-93.45"/>
<text xml:space="preserve" text-anchor="middle" x="786" y="-72.67" font-family="fixed" font-size="12.00" fill="#b5e4f4">HolonomicLocalPlanner</text>
</g>
<!-- chan_cmd_vel_Twist -->
<g id="node10" class="node">
<title>chan_cmd_vel_Twist</title>
<polygon fill="#4db6ac" fill-opacity="0.207843" stroke="#4db6ac" points="613.08,-295.35 534.92,-295.35 534.92,-273.9 613.08,-273.9 613.08,-295.35"/>
<text xml:space="preserve" text-anchor="middle" x="574" y="-282.25" font-family="fixed" font-size="10.00" fill="#b5e4f4">cmd_vel:Twist</text>
</g>
<!-- HolonomicLocalPlanner&#45;&gt;chan_cmd_vel_Twist -->
<g id="edge3" class="edge">
<title>HolonomicLocalPlanner&#45;&gt;chan_cmd_vel_Twist</title>
<path fill="none" stroke="#4db6ac" d="M785.69,-93.65C784.58,-111.36 780.58,-139.03 767,-158.4 725.04,-218.25 644.44,-256.52 601.89,-273.48"/>
</g>
<!-- WavefrontFrontierExplorer -->
<g id="node4" class="node">
<title>WavefrontFrontierExplorer</title>
<polygon fill="#0b0f0f" stroke="#5c9ff0" points="423.95,-93.45 258.05,-93.45 258.05,-57.45 423.95,-57.45 423.95,-93.45"/>
<text xml:space="preserve" text-anchor="middle" x="341" y="-72.67" font-family="fixed" font-size="12.00" fill="#b5e4f4">WavefrontFrontierExplorer</text>
</g>
<!-- chan_goal_request_PoseStamped -->
<g id="node14" class="node">
<title>chan_goal_request_PoseStamped</title>
<polygon fill="#fff59d" fill-opacity="0.207843" stroke="#fff59d" points="569.58,-21.45 428.43,-21.45 428.43,0 569.58,0 569.58,-21.45"/>
<text xml:space="preserve" text-anchor="middle" x="499" y="-8.35" font-family="fixed" font-size="10.00" fill="#b5e4f4">goal_request:PoseStamped</text>
</g>
<!-- WavefrontFrontierExplorer&#45;&gt;chan_goal_request_PoseStamped -->
<g id="edge14" class="edge">
<title>WavefrontFrontierExplorer&#45;&gt;chan_goal_request_PoseStamped</title>
<path fill="none" stroke="#fff59d" d="M385.01,-56.98C413.5,-45.67 449.6,-31.34 473.45,-21.87"/>
</g>
<!-- ObjectTracking -->
<g id="node5" class="node">
<title>ObjectTracking</title>
<polygon fill="#0b0f0f" stroke="#5c9ff0" points="115.58,-93.45 16.42,-93.45 16.42,-57.45 115.58,-57.45 115.58,-93.45"/>
<text xml:space="preserve" text-anchor="middle" x="66" y="-72.67" font-family="fixed" font-size="12.00" fill="#b5e4f4">ObjectTracking</text>
</g>
<!-- SpatialMemory -->
<g id="node6" class="node">
<title>SpatialMemory</title>
<polygon fill="#0b0f0f" stroke="#5c9ff0" points="234.32,-93.45 133.68,-93.45 133.68,-57.45 234.32,-57.45 234.32,-93.45"/>
<text xml:space="preserve" text-anchor="middle" x="184" y="-72.67" font-family="fixed" font-size="12.00" fill="#b5e4f4">SpatialMemory</text>
</g>
<!-- GO2Connection -->
<g id="node7" class="node">
<title>GO2Connection</title>
<polygon fill="#0b0f0f" stroke="#5c9ff0" points="414.2,-230.4 309.8,-230.4 309.8,-194.4 414.2,-194.4 414.2,-230.4"/>
<text xml:space="preserve" text-anchor="middle" x="362" y="-209.62" font-family="fixed" font-size="12.00" fill="#b5e4f4">GO2Connection</text>
</g>
<!-- chan_camera_info_CameraInfo -->
<g id="node9" class="node">
<title>chan_camera_info_CameraInfo</title>
<polygon fill="#dce775" fill-opacity="0.207843" stroke="#dce775" points="130.2,-158.4 1.8,-158.4 1.8,-136.95 130.2,-136.95 130.2,-158.4"/>
<text xml:space="preserve" text-anchor="middle" x="66" y="-145.3" font-family="fixed" font-size="10.00" fill="#b5e4f4">camera_info:CameraInfo</text>
</g>
<!-- GO2Connection&#45;&gt;chan_camera_info_CameraInfo -->
<g id="edge1" class="edge">
<title>GO2Connection&#45;&gt;chan_camera_info_CameraInfo</title>
<path fill="none" stroke="#dce775" d="M309.42,-200.26C254.1,-188.54 167.77,-170.24 114.17,-158.88"/>
</g>
<!-- chan_color_image_Image -->
<g id="node11" class="node">
<title>chan_color_image_Image</title>
<polygon fill="#95e1d3" fill-opacity="0.207843" stroke="#95e1d3" points="251.82,-158.4 148.18,-158.4 148.18,-136.95 251.82,-136.95 251.82,-158.4"/>
<text xml:space="preserve" text-anchor="middle" x="200" y="-145.3" font-family="fixed" font-size="10.00" fill="#b5e4f4">color_image:Image</text>
</g>
<!-- GO2Connection&#45;&gt;chan_color_image_Image -->
<g id="edge5" class="edge">
<title>GO2Connection&#45;&gt;chan_color_image_Image</title>
<path fill="none" stroke="#95e1d3" d="M316.87,-193.93C287.66,-182.62 250.65,-168.29 226.2,-158.82"/>
</g>
<!-- chan_lidar_LidarMessage -->
<g id="node15" class="node">
<title>chan_lidar_LidarMessage</title>
<polygon fill="#7986cb" fill-opacity="0.207843" stroke="#7986cb" points="413.07,-158.4 310.93,-158.4 310.93,-136.95 413.07,-136.95 413.07,-158.4"/>
<text xml:space="preserve" text-anchor="middle" x="362" y="-145.3" font-family="fixed" font-size="10.00" fill="#b5e4f4">lidar:LidarMessage</text>
</g>
<!-- GO2Connection&#45;&gt;chan_lidar_LidarMessage -->
<g id="edge16" class="edge">
<title>GO2Connection&#45;&gt;chan_lidar_LidarMessage</title>
<path fill="none" stroke="#7986cb" d="M362,-193.93C362,-182.62 362,-168.29 362,-158.82"/>
</g>
<!-- Map -->
<g id="node8" class="node">
<title>Map</title>
<polygon fill="#0b0f0f" stroke="#5c9ff0" points="486,-230.4 432,-230.4 432,-194.4 486,-194.4 486,-230.4"/>
<text xml:space="preserve" text-anchor="middle" x="459" y="-209.62" font-family="fixed" font-size="12.00" fill="#b5e4f4">Map</text>
</g>
<!-- chan_global_costmap_OccupancyGrid -->
<g id="node12" class="node">
<title>chan_global_costmap_OccupancyGrid</title>
<polygon fill="#ff8a65" fill-opacity="0.207843" stroke="#ff8a65" points="589.2,-158.4 430.8,-158.4 430.8,-136.95 589.2,-136.95 589.2,-158.4"/>
<text xml:space="preserve" text-anchor="middle" x="510" y="-145.3" font-family="fixed" font-size="10.00" fill="#b5e4f4">global_costmap:OccupancyGrid</text>
</g>
<!-- Map&#45;&gt;chan_global_costmap_OccupancyGrid -->
<g id="edge8" class="edge">
<title>Map&#45;&gt;chan_global_costmap_OccupancyGrid</title>
<path fill="none" stroke="#ff8a65" d="M473.21,-193.93C482.4,-182.62 494.05,-168.29 501.75,-158.82"/>
</g>
<!-- chan_local_costmap_OccupancyGrid -->
<g id="node16" class="node">
<title>chan_local_costmap_OccupancyGrid</title>
<polygon fill="#f06292" fill-opacity="0.207843" stroke="#f06292" points="758.45,-158.4 607.55,-158.4 607.55,-136.95 758.45,-136.95 758.45,-158.4"/>
<text xml:space="preserve" text-anchor="middle" x="683" y="-145.3" font-family="fixed" font-size="10.00" fill="#b5e4f4">local_costmap:OccupancyGrid</text>
</g>
<!-- Map&#45;&gt;chan_local_costmap_OccupancyGrid -->
<g id="edge18" class="edge">
<title>Map&#45;&gt;chan_local_costmap_OccupancyGrid</title>
<path fill="none" stroke="#f06292" d="M486.47,-203.71C526.77,-192.42 601.99,-171.36 646.78,-158.82"/>
</g>
<!-- chan_camera_info_CameraInfo&#45;&gt;ObjectTracking -->
<g id="edge2" class="edge">
<title>chan_camera_info_CameraInfo&#45;&gt;ObjectTracking</title>
<path fill="none" stroke="#dce775" d="M66,-136.61C66,-128.43 66,-116.44 66,-105.33"/>
<polygon fill="#dce775" stroke="#dce775" points="69.5,-105.33 66,-95.33 62.5,-105.33 69.5,-105.33"/>
</g>
<!-- chan_cmd_vel_Twist&#45;&gt;GO2Connection -->
<g id="edge4" class="edge">
<title>chan_cmd_vel_Twist&#45;&gt;GO2Connection</title>
<path fill="none" stroke="#4db6ac" d="M534.73,-281.62C496.82,-279.22 442.39,-274.42 423,-265.9 408.77,-259.65 395.38,-248.92 384.8,-238.78"/>
<polygon fill="#4db6ac" stroke="#4db6ac" points="387.54,-236.57 378.02,-231.94 382.58,-241.51 387.54,-236.57"/>
</g>
<!-- chan_color_image_Image&#45;&gt;ObjectTracking -->
<g id="edge7" class="edge">
<title>chan_color_image_Image&#45;&gt;ObjectTracking</title>
<path fill="none" stroke="#95e1d3" d="M147.95,-137.93C140.03,-135.6 132.12,-132.65 125,-128.95 111.79,-122.08 99.17,-111.59 89.02,-101.79"/>
<polygon fill="#95e1d3" stroke="#95e1d3" points="91.7,-99.53 82.18,-94.89 86.73,-104.45 91.7,-99.53"/>
</g>
<!-- chan_color_image_Image&#45;&gt;SpatialMemory -->
<g id="edge6" class="edge">
<title>chan_color_image_Image&#45;&gt;SpatialMemory</title>
<path fill="none" stroke="#95e1d3" d="M197.71,-136.61C195.82,-128.34 193.05,-116.19 190.5,-104.97"/>
<polygon fill="#95e1d3" stroke="#95e1d3" points="193.93,-104.27 188.29,-95.29 187.1,-105.82 193.93,-104.27"/>
</g>
<!-- chan_global_costmap_OccupancyGrid&#45;&gt;AstarPlanner -->
<g id="edge9" class="edge">
<title>chan_global_costmap_OccupancyGrid&#45;&gt;AstarPlanner</title>
<path fill="none" stroke="#ff8a65" d="M577.17,-136.45C583.36,-134.39 589.41,-131.92 595,-128.95 607.5,-122.31 619.09,-111.89 628.3,-102.08"/>
<polygon fill="#ff8a65" stroke="#ff8a65" points="630.7,-104.65 634.74,-94.86 625.47,-100 630.7,-104.65"/>
</g>
<!-- chan_global_costmap_OccupancyGrid&#45;&gt;BehaviorTreeNavigator -->
<g id="edge10" class="edge">
<title>chan_global_costmap_OccupancyGrid&#45;&gt;BehaviorTreeNavigator</title>
<path fill="none" stroke="#ff8a65" d="M510.57,-136.61C511.04,-128.34 511.74,-116.19 512.38,-104.97"/>
<polygon fill="#ff8a65" stroke="#ff8a65" points="515.85,-105.51 512.92,-95.33 508.86,-105.11 515.85,-105.51"/>
</g>
<!-- chan_global_costmap_OccupancyGrid&#45;&gt;WavefrontFrontierExplorer -->
<g id="edge11" class="edge">
<title>chan_global_costmap_OccupancyGrid&#45;&gt;WavefrontFrontierExplorer</title>
<path fill="none" stroke="#ff8a65" d="M456.37,-136.46C448.42,-134.34 440.41,-131.84 433,-128.95 413.24,-121.23 392.61,-109.81 375.9,-99.59"/>
<polygon fill="#ff8a65" stroke="#ff8a65" points="378.17,-96.88 367.84,-94.55 374.46,-102.81 378.17,-96.88"/>
</g>
<!-- chan_goal_reached_Bool&#45;&gt;WavefrontFrontierExplorer -->
<g id="edge13" class="edge">
<title>chan_goal_reached_Bool&#45;&gt;WavefrontFrontierExplorer</title>
<path fill="none" stroke="#dce775" d="M351.9,-21.87C350.55,-28.38 348.72,-37.19 346.95,-45.73"/>
<polygon fill="#dce775" stroke="#dce775" points="343.53,-44.99 344.93,-55.5 350.39,-46.41 343.53,-44.99"/>
</g>
<!-- chan_goal_request_PoseStamped&#45;&gt;BehaviorTreeNavigator -->
<g id="edge15" class="edge">
<title>chan_goal_request_PoseStamped&#45;&gt;BehaviorTreeNavigator</title>
<path fill="none" stroke="#fff59d" d="M501.43,-21.87C503,-28.45 505.14,-37.39 507.2,-46.02"/>
<polygon fill="#fff59d" stroke="#fff59d" points="503.74,-46.59 509.47,-55.51 510.55,-44.97 503.74,-46.59"/>
</g>
<!-- chan_lidar_LidarMessage&#45;&gt;Map -->
<g id="edge17" class="edge">
<title>chan_lidar_LidarMessage&#45;&gt;Map</title>
<path fill="none" stroke="#7986cb" d="M378.98,-158.85C391.3,-166.31 408.32,-176.77 423,-186.4 423.69,-186.85 424.39,-187.31 425.09,-187.78"/>
<polygon fill="#7986cb" stroke="#7986cb" points="422.83,-190.47 433.07,-193.17 426.74,-184.67 422.83,-190.47"/>
</g>
<!-- chan_local_costmap_OccupancyGrid&#45;&gt;HolonomicLocalPlanner -->
<g id="edge19" class="edge">
<title>chan_local_costmap_OccupancyGrid&#45;&gt;HolonomicLocalPlanner</title>
<path fill="none" stroke="#f06292" d="M697.76,-136.61C711.62,-127.16 732.89,-112.66 751.08,-100.26"/>
<polygon fill="#f06292" stroke="#f06292" points="752.98,-103.2 759.27,-94.67 749.04,-97.41 752.98,-103.2"/>
</g>
<!-- chan_path_Path&#45;&gt;HolonomicLocalPlanner -->
<g id="edge21" class="edge">
<title>chan_path_Path&#45;&gt;HolonomicLocalPlanner</title>
<path fill="none" stroke="#f06292" d="M770.07,-21.87C772.07,-28.45 774.77,-37.39 777.39,-46.02"/>
<polygon fill="#f06292" stroke="#f06292" points="774.02,-46.97 780.27,-55.53 780.72,-44.94 774.02,-46.97"/>
</g>
<!-- chan_target_PoseStamped&#45;&gt;AstarPlanner -->
<g id="edge23" class="edge">
<title>chan_target_PoseStamped&#45;&gt;AstarPlanner</title>
<path fill="none" stroke="#ff6b6b" d="M645.65,-21.87C646.06,-28.38 646.62,-37.19 647.17,-45.73"/>
<polygon fill="#ff6b6b" stroke="#ff6b6b" points="643.66,-45.71 647.79,-55.47 650.65,-45.26 643.66,-45.71"/>
</g>
</g>
</svg>
